<svg xmlns="http://www.w3.org/2000/svg" viewBox="0 0 2400 2400" fill="currentColor" role="img" aria-label="OPS"><path d="M1474.88,795.74v-358.81s-239.12-119.6-239.12-119.6h0l-179.36,89.68.1.05,298.8,149.44v298.98s.04.02.04.02l119.55-59.77Z"/><path d="M1352.94,1144h.02v-.06l-298.9-149.48-.08-298.94-119.29,59.75-.1.05-.21,358.68.1.05,239.09,119.57.07.04,179.3-89.65Z"/><path d="M702.4,1994.58v-352.43c0-70.64,41.92-99.36,113.34-99.36h76.07c71.42,0,113.34,28.72,113.34,99.36v352.43c0,70.64-41.92,99.36-113.34,99.36h-76.07c-71.42,0-113.34-28.72-113.34-99.36ZM885.6,2038.05c45.02,0,56.67-13.97,56.67-57.44v-324.48c0-43.47-11.64-57.45-56.67-57.45h-63.65c-45.02,0-56.67,13.97-56.67,57.45v324.48c0,43.47,11.64,57.44,56.67,57.44h63.65Z"/><path d="M1084.32,1547.45h168.45c72.19,0,113.34,28.72,113.34,99.36v131.97c0,70.64-41.14,99.36-113.34,99.36h-105.57v212.7h-62.88v-543.39ZM1248.11,1823.03c41.14,0,55.89-15.53,55.89-55.12v-110.23c0-39.59-14.75-55.12-55.89-55.12h-100.92v220.46h100.92Z"/><path d="M1408.79,1994.58v-72.19h62.88v58.22c0,43.47,11.64,57.44,56.67,57.44h54.34c45.02,0,56.67-13.97,56.67-57.44v-34.16c0-27.95-9.32-42.69-27.95-56.67l-142.83-97.03c-34.16-22.51-52.01-49.68-52.01-97.81v-52.79c0-70.64,41.14-99.36,113.34-99.36h52.79c71.42,0,113.34,28.72,113.34,99.36v72.19h-62.88v-58.22c0-43.47-11.64-57.45-56.67-57.45h-40.37c-45.02,0-57.44,13.97-57.44,57.45v31.83c0,27.95,9.31,42.69,28.72,55.89l142.06,97.03c34.16,23.29,52.79,50.46,52.79,98.59v55.12c0,70.64-41.92,99.36-113.34,99.36h-66.76c-71.42,0-113.34-28.72-113.34-99.36Z"/></svg>
